<svg xmlns="http://www.w3.org/2000/svg" viewBox="0 0 512 512" width="512" height="512">
  <defs>
    <linearGradient id="brand-gradient" x1="0%" y1="0%" x2="100%" y2="100%">
      <stop offset="0%" style="stop-color:#FF6B6B;stop-opacity:1" />
      <stop offset="100%" style="stop-color:#4ECDC4;stop-opacity:1" />
    </linearGradient>
  </defs>
  <path fill="url(#brand-gradient)" d="M256,0C114.6,0,0,114.6,0,256s114.6,256,256,256s256-114.6,256-256S397.4,0,256,0z M366.5,142.6 c15.1,0,27.4,12.3,27.4,27.4c0,15.1-12.3,27.4-27.4,27.4c-15.1,0-27.4-12.3-27.4-27.4C339.1,154.9,351.4,142.6,366.5,142.6z M145.5,142.6c15.1,0,27.4,12.3,27.4,27.4c0,15.1-12.3,27.4-27.4,27.4c-15.1,0-27.4-12.3-27.4-27.4C118.1,154.9,130.4,142.6,145.5,142.6z M118.1,232c0-15.1,12.3-27.4,27.4-27.4c15.1,0,27.4,12.3,27.4,27.4c0,15.1-12.3,27.4-27.4,27.4 C130.4,259.4,118.1,247.1,118.1,232z M256,432c-63.4,0-118-35.4-148-89c-5.8-10.3,5.3-20.9,15.6-14.8c42,24.9,90.7,39.1,142.4,39.1 c51.7,0,100.4-14.2,142.4-39.1c10.3-6.1,21.4,4.5,15.6,14.8C374,396.6,319.4,432,256,432z M366.5,259.4c-15.1,0-27.4-12.3-27.4-27.4 c0-15.1,12.3-27.4,27.4-27.4c15.1,0,27.4,12.3,27.4,27.4C393.9,247.1,381.6,259.4,366.5,259.4z M256,334c-35.3,0-64-28.7-64-64 c0-35.3,28.7-64,64-64c35.3,0,64,28.7,64,64C320,305.3,291.3,334,256,334z"/>
</svg>
